<svg width="40" height="41" viewBox="0 0 40 41" fill="none" xmlns="http://www.w3.org/2000/svg">
<g id="emojione:alarm-clock">
<path id="Vector" d="M20.0625 38.6875C28.761 38.6875 35.8125 31.608 35.8125 22.875C35.8125 14.142 28.761 7.0625 20.0625 7.0625C11.364 7.0625 4.3125 14.142 4.3125 22.875C4.3125 31.608 11.364 38.6875 20.0625 38.6875Z" fill="#720E8B"/>
<path id="Vector_2" d="M20.0625 35.1875C26.828 35.1875 32.3125 29.675 32.3125 22.875C32.3125 16.075 26.828 10.5625 20.0625 10.5625C13.297 10.5625 7.8125 16.075 7.8125 22.875C7.8125 29.675 13.297 35.1875 20.0625 35.1875Z" fill="white"/>
<path id="Vector_3" d="M6.875 30.6875L5.5 39.25H6.6875C7.4375 39.25 7.6875 38.375 8.1875 37.3125C8.8125 35.9375 10.3125 32.375 10.3125 32.375L6.875 30.6875ZM33.1875 30.6875L34.625 39.25H33.4375C32.6875 39.25 32.4375 38.375 31.9375 37.3125C31.3125 35.9375 29.8125 32.375 29.8125 32.375L33.1875 30.6875ZM8.3125 6.875L12 10.5625L10.0625 12.5625L6.375 8.8125L8.3125 6.875ZM31.8125 6.875L28.125 10.5625L30.0625 12.5625L33.75 8.8125L31.8125 6.875Z" fill="#720E8B"/>
<path id="Vector_4" d="M3.5625 15.25L14.5625 4.0625C13.1875 2.625 11.25 1.75 9.0625 1.75C4.75 1.75 1.25 5.3125 1.25 9.625C1.25 11.8125 2.125 13.8125 3.5625 15.25ZM25.3125 4.125L36.4375 15.1875C37.875 13.75 38.75 11.8125 38.75 9.625C38.75 5.3125 35.25 1.75 30.875 1.75C28.6875 1.8125 26.75 2.6875 25.3125 4.125Z" fill="#B0B8B8"/>
<path id="Vector_5" d="M12.875 29.625L19.3125 23.0625L20.0625 23.8125L13.625 30.3125L12.875 29.625Z" fill="#ED4C5C"/>
<g id="Group">
<path id="Vector_6" d="M20.0625 25.1875C21.3397 25.1875 22.375 24.1522 22.375 22.875C22.375 21.5978 21.3397 20.5625 20.0625 20.5625C18.7853 20.5625 17.75 21.5978 17.75 22.875C17.75 24.1522 18.7853 25.1875 20.0625 25.1875Z" fill="#720E8B"/>
<path id="Vector_7" d="M18.875 14.0625H21.1875V23.4375H18.875V14.0625ZM21.1875 21.6875H25.875V24H21.1875V21.6875Z" fill="#720E8B"/>
</g>
</g>
</svg>
