<svg width="32" height="32" viewBox="0 0 32 32" fill="none" xmlns="http://www.w3.org/2000/svg">
<g id="noto-v1:exclamation-question-mark">
<path id="Vector" d="M18.9425 20.6972V19.1997C18.9425 18.5122 19.0125 17.8872 19.155 17.3272C19.2975 16.7647 19.5125 16.2322 19.8025 15.7272C20.0925 15.2222 20.4675 14.7297 20.925 14.2497C21.385 13.7697 21.9375 13.2722 22.585 12.7622C23.1525 12.3147 23.6325 11.9172 24.025 11.5672C24.415 11.2147 24.7325 10.8672 24.975 10.5247C25.2175 10.1822 25.395 9.81969 25.5025 9.44219C25.61 9.06469 25.665 8.62469 25.665 8.12719C25.665 7.35719 25.405 6.72219 24.885 6.22219C24.365 5.72219 23.5725 5.47469 22.505 5.47469C21.5725 5.47469 20.57 5.66969 19.4975 6.05969C18.425 6.45219 17.315 6.92969 16.1675 7.49719L14.1025 3.02219C14.6825 2.68719 15.315 2.36469 15.995 2.06219C16.6775 1.75969 17.385 1.48719 18.12 1.25219C18.855 1.01469 19.6025 0.829687 20.3575 0.697187C21.1125 0.562187 21.8575 0.492188 22.585 0.492188C23.9625 0.492188 25.2025 0.659687 26.31 0.989688C27.4175 1.31969 28.355 1.80219 29.125 2.43719C29.895 3.07219 30.485 3.83969 30.8975 4.74469C31.31 5.64719 31.515 6.67969 31.515 7.84219C31.515 8.69469 31.42 9.45219 31.2325 10.1222C31.0461 10.7812 30.763 11.4088 30.3925 11.9847C30.02 12.5572 29.555 13.1097 28.995 13.6422C28.435 14.1772 27.7825 14.7397 27.04 15.3347C26.4725 15.7797 26.01 16.1672 25.6525 16.4997C25.295 16.8297 25.015 17.1447 24.8125 17.4422C24.61 17.7372 24.4725 18.0447 24.3975 18.3622C24.3225 18.6797 24.285 19.0522 24.285 19.4872V20.7022H18.9425V20.6972ZM18.2725 27.6222C18.2725 26.9897 18.365 26.4497 18.5475 26.0147C18.73 25.5747 18.9825 25.2222 19.3075 24.9497C19.63 24.6797 20.0125 24.4847 20.4525 24.3647C20.89 24.2422 21.36 24.1822 21.86 24.1822C22.3325 24.1822 22.78 24.2447 23.2075 24.3647C23.6325 24.4847 24.0075 24.6822 24.33 24.9497C24.6525 25.2222 24.91 25.5747 25.1 26.0147C25.29 26.4522 25.3825 26.9897 25.3825 27.6222C25.3825 28.2297 25.2875 28.7522 25.1 29.1822C24.91 29.6122 24.655 29.9697 24.33 30.2547C24.005 30.5372 23.63 30.7447 23.2075 30.8722C22.7825 30.9997 22.3325 31.0647 21.86 31.0647C21.36 31.0647 20.89 30.9997 20.4525 30.8722C20.0125 30.7447 19.63 30.5372 19.3075 30.2547C18.985 29.9697 18.73 29.6122 18.5475 29.1822C18.365 28.7497 18.2725 28.2272 18.2725 27.6222ZM5.48496 19.0197H9.87496C10.035 19.0197 10.1675 18.9147 10.1775 18.7822L11.375 1.55969C11.38 1.48969 11.35 1.42469 11.2925 1.37219C11.235 1.32219 11.1575 1.29219 11.0725 1.29219H4.28496C4.20246 1.29219 4.12246 1.32219 4.06496 1.37219C4.00996 1.42219 3.97746 1.48969 3.98496 1.55969L5.18246 18.7822C5.19246 18.9147 5.32246 19.0197 5.48496 19.0197ZM4.12496 28.0722C4.12496 27.4397 4.21746 26.9047 4.39996 26.4647C4.58246 26.0247 4.83496 25.6722 5.15996 25.3997C5.48246 25.1297 5.86496 24.9347 6.30496 24.8147C6.74246 24.6922 7.21246 24.6297 7.71246 24.6297C8.18496 24.6297 8.63496 24.6897 9.05996 24.8147C9.48496 24.9347 9.85996 25.1322 10.1825 25.3997C10.505 25.6722 10.7625 26.0247 10.9525 26.4647C11.1425 26.9047 11.235 27.4397 11.235 28.0722C11.235 28.6822 11.14 29.1997 10.9525 29.6322C10.7625 30.0622 10.5075 30.4222 10.1825 30.7047C9.85746 30.9872 9.48246 31.1947 9.05996 31.3222C8.63496 31.4497 8.18496 31.5147 7.71246 31.5147C7.21246 31.5147 6.74246 31.4522 6.30496 31.3222C5.86496 31.1947 5.48246 30.9872 5.15996 30.7047C4.83746 30.4222 4.58246 30.0622 4.39996 29.6322C4.21746 29.1997 4.12496 28.6797 4.12496 28.0722Z" fill="#8A369E"/>
</g>
</svg>
