<svg width="52" height="52" viewBox="0 0 52 52" fill="none" xmlns="http://www.w3.org/2000/svg">
<g id="token:idea">
<path id="Vector" d="M19.3613 23.1116L15.6845 21.4411L16.6313 19.7511L20.3082 21.4303L19.3613 23.103V23.1116ZM26.4832 20.3361C26.7518 20.3361 26.9663 20.1043 26.9663 19.8248C26.9663 19.5453 26.7518 19.3135 26.4832 19.3135C26.2145 19.3135 26 19.5453 26 19.8248C26 20.1021 26.2145 20.3361 26.4832 20.3361ZM25.1637 20.0393C25.1805 19.9845 25.19 19.9276 25.1918 19.8703C25.1948 19.7389 25.1456 19.6116 25.0551 19.5162C24.9646 19.4208 24.8401 19.3651 24.7087 19.3611C24.4487 19.3611 24.2277 19.593 24.2277 19.8703C24.2277 20.1498 24.4487 20.3816 24.7108 20.3816C24.7713 20.3817 24.8311 20.3692 24.8863 20.3448L25.1268 20.6048C25.1153 20.6538 25.1095 20.704 25.1095 20.7543C25.1066 20.8857 25.1557 21.013 25.2462 21.1084C25.3367 21.2038 25.4613 21.2595 25.5927 21.2635C25.8527 21.2635 26.065 21.0316 26.065 20.7521C26.065 20.4748 25.8527 20.243 25.5927 20.243C25.5286 20.2413 25.465 20.2539 25.4063 20.2798L25.1637 20.0393ZM24.3187 20.698C24.3187 20.9753 24.0977 21.2093 23.8377 21.2093H23.7618L23.4368 21.7835C23.4896 21.8667 23.5177 21.9633 23.5177 22.0619C23.5177 22.1605 23.4896 22.257 23.4368 22.3403L23.6058 22.6003C23.6808 22.5797 23.7594 22.5768 23.8356 22.592C23.9118 22.6072 23.9834 22.64 24.0447 22.6878C24.1059 22.7356 24.1551 22.7971 24.1884 22.8673C24.2217 22.9375 24.2381 23.0145 24.2363 23.0921C24.2375 23.2225 24.1876 23.3481 24.0973 23.442C24.007 23.536 23.8835 23.5908 23.7532 23.5948C23.6883 23.594 23.6243 23.5802 23.5647 23.5544C23.5052 23.5286 23.4514 23.4913 23.4065 23.4445C23.3615 23.3977 23.3263 23.3425 23.3029 23.282C23.2795 23.2215 23.2683 23.157 23.27 23.0921C23.27 23.0185 23.2823 22.9535 23.3068 22.8971L23.0945 22.5721H23.0382C22.9737 22.5713 22.91 22.5577 22.8508 22.5322C22.7915 22.5066 22.7379 22.4697 22.693 22.4234C22.6482 22.3771 22.6128 22.3223 22.5892 22.2624C22.5655 22.2024 22.5539 22.1383 22.555 22.0738C22.555 21.7921 22.7695 21.5603 23.0382 21.5603H23.0858L23.4195 20.958C23.3764 20.8781 23.3541 20.7887 23.3545 20.698C23.3545 20.4185 23.5668 20.1866 23.8377 20.1866C24.0977 20.1866 24.3208 20.4185 24.3208 20.698M22.1867 21.348C22.2515 21.3471 22.3156 21.3334 22.3751 21.3076C22.4346 21.2818 22.4884 21.2444 22.5334 21.1977C22.5783 21.1509 22.6135 21.0957 22.637 21.0352C22.6604 20.9747 22.6716 20.9101 22.6698 20.8453C22.6728 20.7139 22.6236 20.5866 22.5331 20.4912C22.4426 20.3958 22.3181 20.3401 22.1867 20.3361C21.9158 20.3361 21.7035 20.5593 21.7035 20.8453C21.7064 20.9117 21.7187 20.9739 21.7403 21.0316L21.3503 21.5798C21.3083 21.5667 21.2644 21.5602 21.2203 21.5603C20.9603 21.5603 20.748 21.7835 20.748 22.0716C20.748 22.3511 20.9603 22.583 21.2203 22.583C21.4998 22.583 21.7035 22.3511 21.7035 22.0716C21.7031 21.9993 21.6907 21.9275 21.6667 21.8593L22.0372 21.3285C22.085 21.3466 22.1356 21.3561 22.1867 21.3566V21.348ZM25.194 21.868C25.194 22.1453 24.9817 22.3793 24.7108 22.3793C24.4508 22.3793 24.2298 22.1453 24.2298 21.868C24.2298 21.5885 24.4508 21.3566 24.713 21.3566C24.9817 21.3566 25.194 21.5798 25.194 21.868ZM25.1008 27.4385C25.1051 27.3146 25.0631 27.1936 24.983 27.0991C24.9029 27.0045 24.7904 26.9432 24.6675 26.9271C24.3975 26.7405 24.2025 26.4641 24.1172 26.1471C24.1392 26.0756 24.1487 26.0009 24.1453 25.9261C24.1778 25.7494 24.2466 25.5814 24.3473 25.4326C24.448 25.2838 24.5784 25.1575 24.7303 25.0616C24.9535 25.0161 25.103 24.8103 25.103 24.5611C25.103 24.2816 24.8972 24.0585 24.6372 24.0585C24.5717 24.0584 24.5068 24.0715 24.4464 24.0969C24.386 24.1223 24.3313 24.1595 24.2855 24.2063C24.2397 24.2532 24.2037 24.3087 24.1796 24.3696C24.1556 24.4305 24.1439 24.4956 24.1453 24.5611L24.154 24.6543C24.0608 25.118 23.8398 25.3476 23.6535 25.4603C23.3935 25.4603 23.1898 25.6921 23.1898 25.9716C23.1898 26.2121 23.3458 26.418 23.5603 26.4743C23.7922 26.613 24.1172 26.8903 24.1822 27.2543C24.1611 27.3136 24.1486 27.3756 24.1453 27.4385C24.1453 27.718 24.3598 27.9411 24.6285 27.9411C24.6934 27.9403 24.7574 27.9266 24.8169 27.9008C24.8765 27.875 24.9303 27.8376 24.9752 27.7908C25.0202 27.7441 25.0554 27.6888 25.0788 27.6283C25.1022 27.5679 25.1134 27.5033 25.1117 27.4385H25.1008ZM20.839 25.9716C20.839 26.2511 20.6267 26.483 20.358 26.483C20.098 26.483 19.8835 26.2511 19.8835 25.9716C19.8835 25.6921 20.098 25.4603 20.358 25.4603C20.6267 25.4603 20.839 25.6921 20.839 25.9716ZM21.528 27.4948C21.5785 27.4105 21.604 27.3136 21.6017 27.2153C21.6023 27.0853 21.5521 26.9603 21.4619 26.8668C21.3716 26.7733 21.2484 26.7188 21.1185 26.7148C20.8498 26.7148 20.6353 26.938 20.6353 27.2261C20.6353 27.5035 20.8498 27.7266 21.1185 27.7266H21.1748L21.658 28.5261C21.621 28.6009 21.6017 28.6832 21.6017 28.7666C21.6017 29.0461 21.814 29.278 22.074 29.278C22.3448 29.278 22.5572 29.0548 22.5572 28.7666C22.5586 28.702 22.5472 28.6377 22.5237 28.5774C22.5001 28.5172 22.4649 28.4622 22.4199 28.4157C22.375 28.3691 22.3213 28.332 22.2619 28.3063C22.2026 28.2806 22.1387 28.267 22.074 28.2661H21.9917L21.528 27.4948ZM20.9322 28.5716C20.9322 28.8511 20.7198 29.083 20.449 29.083C20.3176 29.0784 20.1933 29.0222 20.1032 28.9264C20.0131 28.8306 19.9645 28.7031 19.968 28.5716C19.968 28.2943 20.189 28.0603 20.449 28.0603C20.7198 28.0603 20.9322 28.2921 20.9322 28.5716ZM19.8835 27.7353C20.1435 27.7353 20.358 27.5035 20.358 27.2261C20.358 26.9466 20.1435 26.7148 19.8835 26.7148C19.6148 26.7148 19.4003 26.938 19.4003 27.2261C19.4003 27.5035 19.6148 27.7266 19.8835 27.7266V27.7353ZM20.9322 23.3153C20.9288 23.4055 20.9067 23.4941 20.8672 23.5753L21.2117 24.0585H21.3222L21.658 23.5666C21.6185 23.4889 21.5991 23.4025 21.6017 23.3153C21.6017 23.038 21.814 22.8061 22.074 22.8061C22.2054 22.8101 22.33 22.8658 22.4205 22.9612C22.511 23.0566 22.5601 23.1839 22.5572 23.3153C22.5572 23.5948 22.3448 23.8266 22.074 23.8266H21.9917L21.6472 24.3293C21.6847 24.4031 21.704 24.4848 21.7035 24.5676C21.7035 24.8493 21.489 25.0811 21.2203 25.0811C20.9603 25.0811 20.748 24.8493 20.748 24.5698C20.748 24.4485 20.7848 24.338 20.839 24.2535L20.5248 23.818L20.4685 23.8266L20.2172 24.3661C20.2637 24.414 20.3001 24.4706 20.3243 24.5328C20.3485 24.5949 20.3599 24.6613 20.358 24.728C20.358 25.0053 20.1435 25.2393 19.8835 25.2393C19.6148 25.2393 19.4003 25.0053 19.4003 24.728C19.3962 24.6035 19.4388 24.4819 19.5198 24.3872C19.6008 24.2926 19.7143 24.2317 19.838 24.2166L20.098 23.6598C20.0141 23.5647 19.9679 23.4421 19.968 23.3153C19.968 23.038 20.189 22.8061 20.449 22.8061C20.5804 22.8101 20.705 22.8658 20.7955 22.9612C20.886 23.0566 20.9351 23.1839 20.9322 23.3153ZM22.789 25.0811C23.0598 25.0811 23.2722 24.8493 23.2722 24.5611C23.2739 24.4963 23.2627 24.4317 23.2393 24.3713C23.2159 24.3108 23.1807 24.2555 23.1357 24.2088C23.0908 24.162 23.037 24.1246 22.9774 24.0988C22.9179 24.073 22.8539 24.0593 22.789 24.0585C22.6587 24.0624 22.5352 24.1173 22.4449 24.2112C22.3546 24.3052 22.3047 24.4308 22.3058 24.5611C22.3058 24.8385 22.529 25.0703 22.789 25.0703V25.0811ZM23.6622 29.3516C23.9417 29.3516 24.1453 29.1285 24.1453 28.8403C24.1483 28.7089 24.0991 28.5816 24.0086 28.4862C23.9181 28.3908 23.7936 28.3351 23.6622 28.3311C23.4022 28.3311 23.1898 28.563 23.1898 28.8403C23.1898 29.1198 23.4022 29.3516 23.6622 29.3516ZM25.1658 30.1316C25.1658 30.4111 24.9535 30.643 24.6848 30.643C24.6308 30.6435 24.5772 30.634 24.5267 30.6148L24.3122 30.9853C24.3327 31.0392 24.3423 31.0967 24.3403 31.1543C24.3433 31.2857 24.2941 31.413 24.2036 31.5084C24.1131 31.6038 23.9886 31.6595 23.8572 31.6635C23.5972 31.6635 23.3848 31.4403 23.3848 31.1521V31.0611L22.958 30.5671C22.89 30.5945 22.8162 30.6042 22.7435 30.5953L22.6503 30.8185C22.7261 30.9138 22.7659 31.0326 22.763 31.1543C22.763 31.4316 22.5485 31.6635 22.2885 31.6635C22.0198 31.6635 21.8053 31.4403 21.8053 31.1521C21.8053 30.8748 22.009 30.6538 22.269 30.643L22.3903 30.3721C22.3375 30.2891 22.3083 30.1932 22.3058 30.0948C22.3058 29.8153 22.529 29.5835 22.789 29.5835C23.0598 29.5835 23.2722 29.8066 23.2722 30.0948L23.244 30.2616L23.634 30.708C23.69 30.6757 23.7521 30.6558 23.8164 30.6494C23.8806 30.6431 23.9455 30.6505 24.0067 30.6711L24.2298 30.2985C24.2132 30.2443 24.2038 30.1882 24.2017 30.1316C24.2017 29.8521 24.4248 29.6203 24.6848 29.6203C24.9535 29.6203 25.168 29.8521 25.168 30.1316M26.0693 26.1016C26.0693 26.3811 25.857 26.613 25.597 26.613C25.3262 26.613 25.1138 26.3811 25.1138 26.1016C25.1138 25.8221 25.3088 25.6098 25.558 25.5903C25.727 25.4798 25.9307 25.2393 26.052 24.7735C26.0021 24.6561 25.9952 24.5249 26.0325 24.403C25.9831 24.0855 25.8179 23.7976 25.5688 23.5948C25.442 23.586 25.3234 23.529 25.2372 23.4355C25.151 23.3421 25.1038 23.2193 25.1052 23.0921C25.1052 22.8148 25.3262 22.583 25.597 22.583C25.857 22.583 26.0693 22.8061 26.0693 23.0943C26.0685 23.1737 26.053 23.2523 26.0238 23.3261C26.117 23.558 26.3012 23.9653 26.4788 24.0585C26.7562 24.0585 26.9707 24.2816 26.9707 24.5611C26.9712 24.6566 26.9453 24.7504 26.896 24.8322C26.8467 24.914 26.7759 24.9806 26.6912 25.0248L26.7193 25.0335C26.5459 25.1469 26.3984 25.2957 26.2864 25.47C26.1744 25.6444 26.1004 25.8404 26.0693 26.0453V26.1016ZM26.5525 27.9411C26.6174 27.9403 26.6814 27.9266 26.7409 27.9008C26.8005 27.875 26.8543 27.8376 26.8992 27.7908C26.9442 27.7441 26.9794 27.6888 27.0028 27.6283C27.0262 27.5679 27.0374 27.5033 27.0357 27.4385C27.0357 27.1611 26.8212 26.9271 26.5525 26.9271C26.4207 26.9311 26.2959 26.9871 26.2053 27.083C26.1147 27.1788 26.0658 27.3067 26.0693 27.4385C26.0708 27.515 26.0867 27.5865 26.117 27.653L25.7162 28.2661H25.6512C25.5865 28.267 25.5226 28.2806 25.4633 28.3063C25.4039 28.332 25.3502 28.3691 25.3053 28.4157C25.2603 28.4622 25.2251 28.5172 25.2015 28.5774C25.178 28.6377 25.1666 28.702 25.168 28.7666C25.168 29.0461 25.3847 29.278 25.6512 29.278C25.783 29.274 25.9078 29.218 25.9984 29.1221C26.089 29.0263 26.1378 28.8984 26.1343 28.7666C26.1327 28.6723 26.1073 28.5799 26.0607 28.498L26.4312 27.9303L26.5525 27.9411ZM26.9707 30.1316C26.9707 30.4111 26.7562 30.643 26.4875 30.643C26.2188 30.643 26 30.4198 26 30.1316C26 29.8521 26.2145 29.6203 26.4832 29.6203C26.7518 29.6203 26.9663 29.8521 26.9663 30.1316M27.3563 31.7761C27.625 31.7761 27.8395 31.553 27.8395 31.2648C27.8395 30.9853 27.625 30.7535 27.3563 30.7535C27.0963 30.7535 26.8818 30.9853 26.8818 31.2648C26.8818 31.5443 27.0963 31.7761 27.3563 31.7761ZM27.9218 25.9716C27.9218 26.2511 27.7095 26.483 27.4387 26.483C27.1787 26.483 26.9663 26.2511 26.9663 25.9716C26.9663 25.6921 27.1787 25.4603 27.4495 25.4603C27.7095 25.4603 27.9218 25.6921 27.9218 25.9716ZM28.3227 27.9585C28.4545 27.9545 28.5793 27.8985 28.6699 27.8026C28.7605 27.7068 28.8093 27.5789 28.8058 27.4471C28.8058 27.1698 28.5827 26.938 28.3227 26.938C28.0518 26.938 27.8395 27.1698 27.8395 27.4493C27.8424 27.5259 27.8547 27.5937 27.8763 27.653L27.5318 28.2098H27.5167C27.452 28.2106 27.3881 28.2243 27.3288 28.25C27.2694 28.2756 27.2157 28.3128 27.1708 28.3593C27.1258 28.4059 27.0906 28.4608 27.067 28.5211C27.0435 28.5813 27.0321 28.6456 27.0335 28.7103C27.0335 28.9898 27.2458 29.2216 27.5167 29.2216C27.6485 29.2177 27.7733 29.1616 27.8639 29.0658C27.9545 28.9699 28.0033 28.8421 27.9998 28.7103C27.9998 28.602 27.963 28.4936 27.8958 28.4048L28.1948 27.9411C28.2324 27.9556 28.2757 27.9614 28.3248 27.9585M28.808 30.0948C28.808 30.188 28.769 30.2898 28.7148 30.3721L28.8903 30.6538H28.9358C29.2067 30.6538 29.419 30.8748 29.419 31.1521C29.419 31.4338 29.2067 31.6635 28.9358 31.6635C28.6672 31.6635 28.4548 31.4403 28.4548 31.1521C28.4561 31.0522 28.4887 30.9552 28.548 30.8748L28.3703 30.5953H28.3248C28.2602 30.5945 28.1963 30.5808 28.1369 30.5551C28.0776 30.5295 28.0239 30.4923 27.9789 30.4458C27.934 30.3992 27.8988 30.3443 27.8752 30.284C27.8516 30.2238 27.8402 30.1595 27.8417 30.0948C27.8417 29.8153 28.054 29.5835 28.3248 29.5835C28.4566 29.5874 28.5815 29.6435 28.6721 29.7393C28.7626 29.8352 28.8115 29.963 28.808 30.0948ZM29.2717 29.2216C29.549 29.2216 29.7548 28.9985 29.7548 28.7103C29.7548 28.433 29.5403 28.2011 29.2803 28.2011C29.1489 28.2051 29.0244 28.2608 28.9339 28.3562C28.8434 28.4516 28.7943 28.5789 28.7972 28.7103C28.7972 28.9898 29.0117 29.2216 29.2803 29.2216H29.2717ZM30.3853 30.0016C30.3853 30.2811 30.1622 30.513 29.9022 30.513C29.6335 30.513 29.419 30.2811 29.419 30.0016C29.419 29.7243 29.6335 29.4903 29.9022 29.4903C30.1622 29.4903 30.3767 29.7135 30.3767 30.0016H30.3853ZM30.719 26.5003C30.8504 26.4963 30.975 26.4406 31.0655 26.3452C31.156 26.2498 31.2051 26.1226 31.2022 25.9911C31.2022 25.7116 30.9898 25.4798 30.719 25.4798C30.4503 25.4798 30.2358 25.703 30.2358 25.9911C30.2358 26.2685 30.4525 26.5003 30.719 26.5003ZM30.3485 27.5793C30.4329 27.4836 30.4792 27.3602 30.4785 27.2326C30.4814 27.1012 30.4323 26.9739 30.3418 26.8785C30.2513 26.7832 30.1268 26.7274 29.9953 26.7235C29.7353 26.7235 29.5122 26.9553 29.5122 27.2348C29.5085 27.3638 29.5551 27.4891 29.6419 27.5844C29.7288 27.6798 29.8493 27.7378 29.978 27.7461L30.2835 28.2466C30.2567 28.3115 30.2406 28.3803 30.2358 28.4503C30.2358 28.7298 30.4525 28.9616 30.719 28.9616C30.9898 28.9616 31.2022 28.7385 31.2022 28.4503C31.2015 28.3519 31.173 28.2558 31.1198 28.173L31.369 27.6811C31.6008 27.6811 31.7785 27.4948 31.7785 27.2543C31.7785 27.0138 31.5922 26.8253 31.3798 26.8253C31.3247 26.8256 31.2701 26.8369 31.2194 26.8587C31.1687 26.8804 31.1229 26.9121 31.0847 26.952C31.0465 26.9918 31.0167 27.0389 30.997 27.0904C30.9774 27.142 30.9683 27.197 30.9703 27.2521C30.9703 27.328 30.9898 27.4038 31.018 27.458L30.7667 27.9498C30.7075 27.9404 30.647 27.9433 30.589 27.9585L30.3572 27.5793H30.3485ZM22.2235 26.2576C22.2816 26.1766 22.3141 26.08 22.3167 25.9803C22.3167 25.6921 22.0935 25.4603 21.8335 25.4603C21.554 25.4603 21.3503 25.6921 21.3503 25.9716C21.3503 26.2511 21.5648 26.483 21.8335 26.483H21.8703L22.3535 27.2261C22.3228 27.2928 22.3066 27.3651 22.3058 27.4385C22.3047 27.5688 22.3546 27.6944 22.4449 27.7884C22.5352 27.8823 22.6587 27.9372 22.789 27.9411C22.8539 27.9403 22.9179 27.9266 22.9774 27.9008C23.037 27.875 23.0908 27.8376 23.1357 27.7908C23.1807 27.7441 23.2159 27.6888 23.2393 27.6283C23.2627 27.5679 23.2739 27.5033 23.2722 27.4385C23.2722 27.1611 23.0598 26.9271 22.789 26.9271C22.749 26.9252 22.7089 26.9289 22.6698 26.938L22.2235 26.2576ZM26.2622 31.683L26.0303 31.4598C26.0517 31.3998 26.0641 31.337 26.0672 31.2735C26.0672 30.9853 25.8548 30.7535 25.5948 30.7535C25.324 30.7535 25.1117 30.9853 25.1117 31.2648C25.1117 31.5443 25.324 31.7761 25.5948 31.7761C25.6403 31.7761 25.688 31.7761 25.7335 31.7566L25.9567 31.9711C25.9336 32.0366 25.9212 32.1054 25.9198 32.1748C25.9198 32.4543 26.1322 32.6861 26.403 32.6861C26.663 32.6861 26.884 32.4543 26.884 32.1748C26.884 31.8953 26.663 31.6635 26.4008 31.6635C26.3539 31.6624 26.307 31.669 26.2622 31.683ZM25.3067 32.1748C25.3067 32.4543 25.0922 32.6861 24.8235 32.6861C24.5548 32.6861 24.3403 32.4543 24.3403 32.1748C24.3403 31.8953 24.5548 31.6635 24.8235 31.6635C25.0922 31.6635 25.3067 31.8953 25.3067 32.1748ZM21.8053 29.863C21.8053 30.1403 21.593 30.3743 21.3222 30.3743C21.0535 30.3743 20.839 30.1403 20.839 29.863C20.839 29.5835 21.0535 29.3516 21.3222 29.3516C21.593 29.3516 21.8053 29.5835 21.8053 29.863ZM28.6585 24.6435C28.6585 24.707 28.6491 24.7662 28.6303 24.8211L29.0485 25.4711H29.159C29.4298 25.4711 29.6422 25.6921 29.6422 25.9716C29.6422 26.2511 29.4298 26.483 29.159 26.483C28.899 26.483 28.6758 26.2511 28.6758 25.9716C28.6773 25.8879 28.6961 25.8135 28.7322 25.7485L28.2967 25.0811H28.249C28.0258 25.0811 27.8417 24.8948 27.8417 24.6435C27.8417 24.4116 28.0258 24.2166 28.249 24.2166C28.4722 24.2166 28.6585 24.403 28.6585 24.6435ZM30.6085 24.728C30.6085 25.0053 30.3853 25.2393 30.1253 25.2393C29.8567 25.2393 29.6422 25.0053 29.6422 24.728C29.6422 24.4485 29.8567 24.2166 30.1253 24.2166C30.2571 24.2206 30.382 24.2766 30.4726 24.3725C30.5631 24.4683 30.612 24.5962 30.6085 24.728ZM29.6422 23.2416C29.6422 23.5211 29.4298 23.7616 29.159 23.7616C28.899 23.7616 28.6758 23.5298 28.6758 23.2503C28.6758 22.973 28.899 22.7411 29.159 22.7411C29.4298 22.7411 29.6422 22.9621 29.6422 23.2503V23.2416ZM27.8222 20.7521C27.8222 21.0338 27.6098 21.2635 27.339 21.2635C27.079 21.2635 26.8667 21.0316 26.8667 20.7521C26.8667 20.4748 27.079 20.243 27.339 20.243C27.6098 20.243 27.8222 20.4748 27.8222 20.7543M28.9922 21.4043C29.1236 21.4003 29.2481 21.3446 29.3386 21.2492C29.4291 21.1538 29.4783 21.0266 29.4753 20.8951C29.4753 20.6156 29.263 20.3838 28.9922 20.3838C28.7322 20.3838 28.509 20.6156 28.509 20.8951C28.509 21.1725 28.7322 21.4065 28.9922 21.4065M27.0335 21.8723C27.0335 22.1496 26.819 22.3836 26.5503 22.3836C26.2903 22.3836 26.0672 22.1496 26.0672 21.8723C26.0672 21.5928 26.2903 21.361 26.5503 21.361C26.819 21.361 27.0335 21.5841 27.0335 21.8723ZM29.7548 22.5873C30.0322 22.5873 30.238 22.3555 30.238 22.076C30.238 21.7986 30.0235 21.5646 29.7548 21.5646C29.4948 21.5646 29.2803 21.7878 29.2803 22.076C29.2803 22.3555 29.4948 22.5873 29.7548 22.5873ZM28.379 22.4746C28.4687 22.4325 28.5444 22.3657 28.5974 22.2821C28.6504 22.1984 28.6783 22.1013 28.678 22.0023C28.678 21.7228 28.4635 21.491 28.2035 21.491C27.9348 21.491 27.7203 21.7141 27.7203 22.0023C27.717 22.0558 27.7236 22.1094 27.7398 22.1605C27.6765 22.375 27.5381 22.5596 27.3498 22.6805C27.2375 22.7153 27.1396 22.7856 27.0708 22.881C27.002 22.9764 26.9661 23.0916 26.9685 23.2091C26.9685 23.506 27.2003 23.7573 27.4798 23.7573C27.7572 23.7573 27.9998 23.506 27.9998 23.2091C28.0004 23.1551 27.9908 23.1015 27.9717 23.051C28.0474 22.8227 28.1891 22.6221 28.379 22.4746ZM31.2022 23.4691C31.202 23.6069 31.1493 23.7394 31.0548 23.8396L31.2022 24.2123C31.3344 24.2196 31.4586 24.2778 31.5487 24.3748C31.6388 24.4718 31.6878 24.5999 31.6853 24.7323C31.6853 25.0096 31.4622 25.2436 31.2022 25.2436C30.9335 25.2436 30.719 25.0096 30.719 24.7323C30.721 24.6114 30.7603 24.4941 30.8317 24.3965L30.6648 23.9696C30.5451 23.9523 30.4357 23.8919 30.3571 23.7998C30.2786 23.7077 30.2362 23.5902 30.238 23.4691C30.238 23.1896 30.4503 22.9578 30.719 22.9578C30.9898 22.9578 31.2022 23.181 31.2022 23.4691ZM26 14.2998C26.3276 14.2984 26.6517 14.2324 26.9537 14.1056C27.2558 13.9788 27.5298 13.7937 27.7603 13.5608C27.9907 13.328 28.1729 13.052 28.2966 12.7486C28.4202 12.4453 28.4828 12.1205 28.4808 11.793C28.4828 11.4654 28.4202 11.1406 28.2966 10.8373C28.1729 10.5339 27.9907 10.2579 27.7603 10.0251C27.5298 9.79227 27.2558 9.60715 26.9537 9.48035C26.6517 9.35355 26.3276 9.28755 26 9.28613C25.6726 9.28783 25.3488 9.35404 25.047 9.48097C24.7452 9.6079 24.4714 9.79306 24.2412 10.0259C24.011 10.2587 23.8289 10.5346 23.7054 10.8378C23.5819 11.141 23.5194 11.4656 23.5213 11.793C23.5194 12.1204 23.5819 12.4449 23.7054 12.7481C23.8289 13.0514 24.011 13.3272 24.2412 13.5601C24.4714 13.7929 24.7452 13.978 25.047 14.105C25.3488 14.2319 25.6726 14.2981 26 14.2998ZM38.3782 21.7553C39.0344 21.7955 39.6797 21.5734 40.1722 21.1378C40.6647 20.7022 40.964 20.0889 41.0042 19.4326C41.0444 18.7764 40.8223 18.1311 40.3867 17.6386C39.9511 17.1461 39.3378 16.8469 38.6815 16.8066C38.3566 16.7867 38.0309 16.831 37.7231 16.9369C37.4153 17.0429 37.1313 17.2084 36.8875 17.4241C36.6436 17.6398 36.4446 17.9014 36.3019 18.194C36.1592 18.4865 36.0754 18.8044 36.0555 19.1293C36.0356 19.4542 36.0799 19.7799 36.1858 20.0877C36.2918 20.3956 36.4573 20.6795 36.673 20.9233C36.8887 21.1672 37.1503 21.3662 37.4428 21.5089C37.7354 21.6517 38.0532 21.7354 38.3782 21.7553ZM40.8568 32.4998C40.8568 32.8045 40.7968 33.1063 40.6802 33.3878C40.5636 33.6693 40.3927 33.9252 40.1772 34.1406C39.9617 34.3561 39.7059 34.527 39.4244 34.6437C39.1428 34.7603 38.8411 34.8203 38.5363 34.8203C38.2316 34.8203 37.9299 34.7603 37.6483 34.6437C37.3668 34.527 37.111 34.3561 36.8955 34.1406C36.68 33.9252 36.5091 33.6693 36.3925 33.3878C36.2759 33.1063 36.2158 32.8045 36.2158 32.4998C36.2158 31.8844 36.4603 31.2941 36.8955 30.859C37.3307 30.4238 37.9209 30.1793 38.5363 30.1793C39.1518 30.1793 39.742 30.4238 40.1772 30.859C40.6124 31.2941 40.8568 31.8844 40.8568 32.4998ZM13.6218 21.8181C14.9868 21.8181 16.0918 20.7045 16.0918 19.3113C16.0918 17.9181 14.9782 16.8045 13.6218 16.8045C13.2945 16.8062 12.9706 16.8724 12.6688 16.9993C12.367 17.1262 12.0932 17.3114 11.863 17.5442C11.6328 17.777 11.4508 18.0529 11.3272 18.3561C11.2037 18.6593 11.1412 18.9839 11.1432 19.3113C11.1412 19.6387 11.2037 19.9633 11.3272 20.2665C11.4508 20.5697 11.6328 20.8456 11.863 21.0784C12.0932 21.3112 12.367 21.4964 12.6688 21.6233C12.9706 21.7502 13.2945 21.8164 13.6218 21.8181ZM28.4808 40.2045C28.4831 40.5322 28.4207 40.8572 28.2972 41.1608C28.1737 41.4644 27.9915 41.7407 27.761 41.9737C27.5306 42.2068 27.2564 42.3921 26.9542 42.519C26.652 42.646 26.3278 42.7121 26 42.7135C25.6726 42.7118 25.3488 42.6456 25.047 42.5186C24.7452 42.3917 24.4714 42.2065 24.2412 41.9737C24.011 41.7409 23.8289 41.465 23.7054 41.1618C23.5819 40.8586 23.5194 40.534 23.5213 40.2066C23.5194 39.8792 23.5819 39.5547 23.7054 39.2515C23.8289 38.9482 24.011 38.6724 24.2412 38.4395C24.4714 38.2067 24.7452 38.0216 25.047 37.8946C25.3488 37.7677 25.6726 37.7015 26 37.6998C27.365 37.6998 28.4808 38.8113 28.4808 40.2045ZM13.6218 35.193C14.9868 35.193 16.0918 34.0793 16.0918 32.6861C16.0941 32.3586 16.0318 32.0337 15.9084 31.7303C15.785 31.4268 15.603 31.1507 15.3728 30.9176C15.1426 30.6846 14.8687 30.4992 14.5667 30.3722C14.2648 30.2451 13.9408 30.1788 13.6132 30.1771C13.2861 30.1791 12.9626 30.2456 12.6613 30.3729C12.36 30.5002 12.0867 30.6857 11.8572 30.9188C11.6278 31.1519 11.4466 31.428 11.324 31.7313C11.2015 32.0346 11.14 32.3591 11.1432 32.6861C11.1432 34.0793 12.2568 35.193 13.6132 35.193H13.6218ZM25.0727 18.5703V14.8566H26.9295V18.5703H25.0727ZM32.0645 23.753L36.2158 21.413L35.2863 19.7966L31.1437 22.1366L32.0753 23.753H32.0645ZM20.1782 29.603L16.5295 31.7198L15.7863 30.3266L19.4263 28.2098L20.1695 29.603H20.1782ZM25.0727 33.113V36.8266H26.9295V33.113H25.0727ZM35.2582 32.2116L30.9877 30.2616L31.7308 28.6821L36.0013 30.643L35.2582 32.2116ZM28.0887 13.8253C28.4245 13.4635 28.665 13.028 28.795 12.5448L36.6514 16.9821C36.2614 17.2811 35.945 17.6711 35.7413 18.1261L28.0908 13.8166L28.0887 13.8253ZM38.3804 22.2471C38.6663 22.2457 38.9444 22.206 39.2145 22.128V29.8911C38.6726 29.7279 38.0946 29.7279 37.5527 29.8911V22.128C37.8214 22.2016 38.09 22.2493 38.3868 22.2493L38.3804 22.2471ZM35.8063 33.958L28.0995 38.2111C28.4332 38.573 28.6845 39.0085 28.8037 39.4916L36.79 35.063C36.3695 34.7889 36.0299 34.4074 35.8063 33.958ZM23.1963 39.5003C23.3194 39.0202 23.5582 38.5776 23.8918 38.2111L16.2218 33.9666C16.0095 34.4216 15.6758 34.803 15.275 35.0998L23.1963 39.5003ZM13.6218 29.7611C13.3358 29.7611 13.0563 29.8066 12.7877 29.8803V22.1215C13.3293 22.284 13.9078 22.284 14.4495 22.1215V29.8825C14.1783 29.8009 13.8964 29.7608 13.6132 29.7633L13.6218 29.7611ZM16.2608 18.1261L23.9113 13.808C23.5725 13.4503 23.3296 13.0128 23.205 12.5361L15.3508 16.9735C15.7408 17.2703 16.055 17.6603 16.2608 18.1261Z" fill="#720E8B"/>
</g>
</svg>
